<svg width="252" height="48" viewBox="0 0 252 48" fill="none" xmlns="http://www.w3.org/2000/svg">
<path d="M0 0H13C14.6569 0 16 1.34315 16 3V36C16 37.6569 14.6569 39 13 39H0V0Z" fill="url(#paint0_linear_1_110)"/>
<circle cx="29.5" cy="6.5" r="6.5" fill="url(#paint1_linear_1_110)"/>
<path d="M63.072 26L57.216 18.608L55.44 20.504V26H52.632V9.2H55.44V16.952L62.592 9.2H66.048L59.112 16.592L66.48 26H63.072ZM70.2351 26C69.6111 26 69.1071 25.816 68.7231 25.448C68.3551 25.064 68.1711 24.568 68.1711 23.96V9.2H80.4831V11.624H70.9791V16.184H79.7631V18.632H70.9791V23.576H80.4831V26H70.2351ZM87.7104 19.496L81.4944 9.2H84.5424L89.1024 16.928L93.6624 9.2H96.7104L90.4944 19.496V26H87.7104V19.496ZM98.4289 9.2H100.949L109.445 21.488V9.2H112.181V26H109.637L101.165 13.76V26H98.4289V9.2ZM121.109 26.192C119.893 26.192 118.821 25.936 117.893 25.424C116.965 24.896 116.245 24.16 115.733 23.216C115.221 22.256 114.965 21.152 114.965 19.904V15.296C114.965 14.048 115.221 12.952 115.733 12.008C116.245 11.048 116.965 10.312 117.893 9.8C118.821 9.272 119.893 9.008 121.109 9.008H123.653C124.869 9.008 125.941 9.272 126.869 9.8C127.813 10.312 128.541 11.048 129.053 12.008C129.565 12.952 129.821 14.048 129.821 15.296V19.904C129.821 21.152 129.565 22.256 129.053 23.216C128.541 24.16 127.813 24.896 126.869 25.424C125.941 25.936 124.869 26.192 123.653 26.192H121.109ZM123.653 23.72C124.645 23.72 125.453 23.36 126.077 22.64C126.701 21.92 127.013 20.976 127.013 19.808V15.392C127.013 14.224 126.701 13.28 126.077 12.56C125.469 11.84 124.661 11.48 123.653 11.48H121.133C120.125 11.48 119.309 11.84 118.685 12.56C118.077 13.28 117.773 14.224 117.773 15.392V19.808C117.773 20.976 118.077 21.92 118.685 22.64C119.309 23.36 120.125 23.72 121.133 23.72H123.653ZM134.665 26C134.041 26 133.537 25.816 133.153 25.448C132.785 25.08 132.601 24.592 132.601 23.984V9.2H140.257C141.505 9.2 142.601 9.44 143.545 9.92C144.505 10.384 145.241 11.048 145.753 11.912C146.281 12.776 146.545 13.776 146.545 14.912V19.808C146.545 21.84 146.017 23.384 144.961 24.44C143.921 25.48 142.385 26 140.353 26H134.665ZM140.281 23.528C141.417 23.528 142.273 23.208 142.849 22.568C143.441 21.912 143.737 20.96 143.737 19.712V15.008C143.737 14.016 143.409 13.216 142.753 12.608C142.097 11.984 141.241 11.672 140.185 11.672H135.409V23.528H140.281ZM151.305 26C150.681 26 150.177 25.816 149.793 25.448C149.425 25.064 149.241 24.568 149.241 23.96V9.2H161.553V11.624H152.049V16.184H160.833V18.632H152.049V23.576H161.553V26H151.305Z" fill="url(#paint2_linear_1_110)"/>
<path d="M47.632 39.5L28.1321 19L23 23.5C19 26.5 19.7988 29.3333 20.6321 30.5C25.0321 38.1 29.7988 39.6667 31.6321 39.5H47.632Z" fill="url(#paint3_linear_1_110)"/>
<defs>
<linearGradient id="paint0_linear_1_110" x1="8" y1="0" x2="8" y2="39" gradientUnits="userSpaceOnUse">
<stop stop-color="#5BCDDD"/>
<stop offset="1" stop-color="#772350"/>
</linearGradient>
<linearGradient id="paint1_linear_1_110" x1="29.5" y1="0" x2="29.5" y2="13" gradientUnits="userSpaceOnUse">
<stop stop-color="#5BCDDD"/>
<stop offset="1" stop-color="#772350"/>
</linearGradient>
<linearGradient id="paint2_linear_1_110" x1="151.5" y1="2" x2="151.5" y2="48" gradientUnits="userSpaceOnUse">
<stop stop-color="#5BCDDD"/>
<stop offset="1" stop-color="#772350"/>
</linearGradient>
<linearGradient id="paint3_linear_1_110" x1="33.8161" y1="19" x2="33.8161" y2="39.5116" gradientUnits="userSpaceOnUse">
<stop stop-color="#5891C5"/>
<stop offset="1" stop-color="#77296B"/>
</linearGradient>
</defs>
</svg>
